<svg width="147" height="147" viewBox="0 0 147 147" fill="none" xmlns="http://www.w3.org/2000/svg">
<g id="label">
<g id="text">
<path id="Vector" d="M66.2612 142.586L63.0895 141.318C61.6447 140.719 61.1866 139.626 61.6799 138.287C62.2085 136.913 63.3362 136.419 64.7811 137.019L67.0012 137.9L68.1641 134.904L69.1156 135.292L66.2612 142.586ZM66.684 138.71L64.7811 137.935C63.6886 137.477 63.0191 137.794 62.6667 138.64C62.3142 139.485 62.6314 140.155 63.7239 140.613L65.6268 141.388L66.684 138.71Z" fill="#FFFCF6"/>
<path id="Vector_2" d="M56.8183 138.358L53.682 136.42C52.4133 135.645 52.0962 134.482 52.7305 133.425C53.2238 132.65 53.9991 132.156 54.9153 132.438C54.2106 131.804 54.422 131.17 54.7744 130.465C55.1268 129.76 55.6201 129.055 55.5144 128.386L56.5011 129.02C56.5716 129.443 56.0078 130.077 55.7258 130.782C55.4439 131.487 55.2325 132.121 56.0782 132.685L58.2631 134.024L60.0251 131.205L60.906 131.734L56.8183 138.358ZM55.9725 133.636C55.162 133.108 54.3163 132.896 53.7172 133.848C53.3296 134.517 53.3648 135.187 54.1753 135.716L56.3954 137.09L57.805 134.764L55.9725 133.636Z" fill="#FFFCF6"/>
<path id="Vector_3" d="M47.9077 132.332L43.8905 128.737L44.4895 128.068L47.7315 130.957L49.3878 129.09L46.3572 126.411L46.9563 125.742L49.9868 128.49L51.784 126.482L48.5068 123.557L49.1059 122.887L53.1584 126.517L47.9077 132.332Z" fill="#FFFCF6"/>
<path id="Vector_4" d="M40.6115 125.391L39.7658 124.263L43.466 118.308L36.7704 120.351L35.9246 119.224L42.1268 114.431L42.7259 115.242L37.5456 119.224L44.206 117.215L44.7698 117.92L41.0696 123.805L46.2499 119.823L46.849 120.633L40.6115 125.391Z" fill="#FFFCF6"/>
<path id="Vector_5" d="M33.422 114.961L32.9287 114.044L39.8356 110.309L40.329 111.225L33.422 114.961Z" fill="#FFFCF6"/>
<path id="Vector_6" d="M33.2821 102.133C35.1146 101.428 36.5242 102.133 37.1585 103.965C37.8633 105.868 37.4052 107.313 35.4317 108.018L30.7448 109.745L30.3924 108.758L35.0793 107.031C36.3832 106.573 36.8061 105.516 36.3127 104.247C35.8546 103.014 34.8679 102.591 33.5992 103.084L28.9123 104.811L28.5599 103.824L33.2821 102.133Z" fill="#FFFCF6"/>
<path id="Vector_7" d="M27.2581 98.9261L27.0467 97.5165L33.1781 94.0632L26.3067 92.6184L26.0952 91.2089L33.8476 90.0108L33.9886 90.9975L27.5752 91.9841L34.3762 93.4289L34.4819 94.3098L28.421 97.6927L34.8343 96.706L34.9752 97.6927L27.2581 98.9261Z" fill="#FFFCF6"/>
<path id="Vector_8" d="M26.1301 80.2492L26.6587 76.6194C26.8701 75.1393 27.7863 74.364 29.0198 74.5402C29.936 74.6812 30.676 75.2098 30.7818 76.1613C31.0989 75.2803 31.7685 75.1745 32.5438 75.245C33.3191 75.3155 34.1648 75.4565 34.7287 75.104L34.5525 76.267C34.1648 76.5137 33.3895 76.2317 32.579 76.267C31.8037 76.267 31.1342 76.3727 30.9932 77.3594L30.6408 79.8968L33.9534 80.3901L33.8124 81.4473L26.1301 80.2492ZM30.1474 77.5709C30.2884 76.5842 30.1474 75.7384 29.0198 75.5974C28.2797 75.4917 27.6454 75.8441 27.5044 76.7604L27.1168 79.3329L29.8303 79.7206L30.1474 77.5709Z" fill="#FFFCF6"/>
<path id="Vector_9" d="M28.9821 66.402C29.7926 64.041 32.0479 63.4772 34.0918 64.182C36.1005 64.8515 37.5805 66.6839 36.77 69.0449C35.9595 71.4059 33.7042 71.9698 31.6603 71.265C29.6164 70.6307 28.1716 68.763 28.9821 66.402ZM35.889 68.7983C36.4881 67.0011 35.1842 65.6972 33.7042 65.2039C32.2241 64.7105 30.3917 64.922 29.7926 66.7192C29.1936 68.5163 30.4974 69.8202 31.9775 70.3135C33.4575 70.8069 35.29 70.5954 35.889 68.7983Z" fill="#FFFCF6"/>
<path id="Vector_10" d="M33.8434 55.7602C35.0768 53.6106 37.4378 53.5049 39.2703 54.5621C41.1027 55.6193 42.1951 57.6984 40.9265 59.8832C39.6579 62.068 37.3321 62.1385 35.4997 61.0813C33.6672 59.9537 32.5748 57.8746 33.8434 55.7602ZM40.1865 59.4251C41.1379 57.7689 40.116 56.2536 38.7769 55.4783C37.4026 54.6678 35.6054 54.5621 34.6187 56.1831C33.6672 57.8393 34.6892 59.3546 36.0283 60.1299C37.4026 60.9404 39.1998 61.0461 40.1865 59.4251Z" fill="#FFFCF6"/>
<path id="Vector_11" d="M38.6756 48.7468L39.627 47.6544L46.1462 50.2269L42.9395 43.9896L43.8909 42.8972L49.7054 48.1478L49.0358 48.8878L44.1729 44.5182L47.3796 50.685L46.7805 51.3545L40.2966 48.8173L45.1595 53.187L44.49 53.927L38.6756 48.7468Z" fill="#FFFCF6"/>
<path id="Vector_12" d="M52.7006 38.6699C51.9253 37.8241 51.0443 37.9298 50.1986 38.5641C49.5291 39.0927 48.9652 39.868 49.5995 40.7137C50.1634 41.489 51.291 40.8547 52.4539 40.3261C53.6168 39.7975 54.8854 39.3746 55.8017 40.6433C56.7884 41.9823 55.9074 43.4976 54.7797 44.3434C53.3701 45.4005 51.6787 45.612 50.5158 44.0967L51.3263 43.4976C52.1015 44.5548 53.3701 44.3434 54.2864 43.6386C55.0616 43.0748 55.6959 42.229 54.9912 41.3128C54.3568 40.4671 53.2292 41.0309 52.0663 41.5595C50.9034 42.0881 49.67 42.5462 48.8243 41.4185C47.8376 40.1499 48.5776 38.7051 49.7052 37.8594C50.9739 36.8727 52.4187 36.767 53.4759 38.106L52.7006 38.6699Z" fill="#FFFCF6"/>
<path id="Vector_13" d="M59.3233 39.6572L60.3805 39.0933L60.9443 40.1505L59.8871 40.7143L59.3233 39.6572Z" fill="#FFFCF6"/>
<path id="Vector_14" d="M66.8957 28.9793L69.6445 28.204C70.314 28.0278 71.195 27.7811 71.6884 27.9221C72.2522 28.063 72.8161 28.4859 73.0275 29.2612C73.2742 30.0717 72.9923 30.7765 72.3579 31.2699C73.3447 31.1994 74.0495 31.7633 74.2961 32.7148C74.6133 33.8072 74.0847 35.1111 72.6046 35.534L68.9749 36.5559L66.8957 28.9793ZM69.7502 35.3578L72.2875 34.653C73.1685 34.4063 73.5561 33.7367 73.3447 32.891C73.0627 31.9042 72.1817 31.869 71.336 32.0804L69.0454 32.75L69.7502 35.3578ZM68.7987 31.9395L70.8074 31.4109C71.9703 31.0937 72.2875 30.5651 72.076 29.7898C71.7941 28.7326 71.0188 28.8031 70.1378 29.0498L68.1291 29.5784L68.7987 31.9395Z" fill="#FFFCF6"/>
<path id="Vector_15" d="M79.5104 26.3011L80.6734 26.1954L84.444 33.7015L83.2811 33.8072L82.2239 31.5519L78.9466 31.869L78.277 34.3006L77.1846 34.4063L79.5104 26.3011ZM79.158 30.9528L81.801 30.7061L80.1447 27.2174L79.158 30.9528Z" fill="#FFFCF6"/>
<path id="Vector_16" d="M87.7202 25.9107L88.8126 26.0164L92.3719 32.6769L92.9005 26.3688L93.8872 26.4393L93.2529 34.2627L92.1252 34.1922L88.5659 27.6022L88.0373 33.8398L87.0506 33.7693L87.7202 25.9107Z" fill="#FFFCF6"/>
<path id="Vector_17" d="M98.8548 27.3221L99.8416 27.6041L98.8196 31.3748L103.683 28.626L104.951 28.9784L100.934 31.1634L103.013 36.5552L101.745 36.2028L100.053 31.6215L98.4672 32.432L97.7271 35.0751L96.7404 34.7931L98.8548 27.3221Z" fill="#FFFCF6"/>
<path id="Vector_18" d="M114.227 33.0307L115.108 33.5593L113.346 36.449L116.87 38.5634L118.632 35.6737L119.513 36.2023L115.425 42.8979L114.544 42.3693L116.412 39.3034L112.888 37.189L111.02 40.2549L110.139 39.7263L114.227 33.0307Z" fill="#FFFCF6"/>
<path id="Vector_19" d="M126.203 41.3468C128.035 43.0383 127.648 45.3288 126.203 46.9146C124.758 48.5003 122.538 49.0994 120.67 47.4432C118.803 45.7869 119.226 43.4612 120.67 41.8754C122.115 40.2896 124.335 39.6906 126.203 41.3468ZM121.269 46.7736C122.679 48.0422 124.406 47.3727 125.428 46.2098C126.45 45.0469 127.014 43.285 125.604 42.0164C124.194 40.7478 122.468 41.4173 121.446 42.5802C120.424 43.7431 119.86 45.505 121.269 46.7736Z" fill="#FFFCF6"/>
<path id="Vector_20" d="M132.229 49.346L130.643 47.2668L131.313 46.7383L135.154 51.707L134.484 52.2356L132.899 50.1565L127.401 54.3851L126.767 53.5394L132.229 49.346Z" fill="#FFFCF6"/>
<path id="Vector_21" d="M137.304 55.124L139.877 59.8814L139.102 60.3043L137.022 56.4631L134.838 57.6612L136.776 61.2205L136.001 61.6434L134.062 58.0841L131.701 59.388L133.816 63.2644L133.04 63.6873L130.433 58.8946L137.304 55.124Z" fill="#FFFCF6"/>
<path id="Vector_22" d="M141.635 63.9698L141.987 64.9565L135.433 67.2823L136.807 71.194L135.961 71.4759L134.234 66.5775L141.635 63.9698Z" fill="#FFFCF6"/>
</g>
<g id="icon">
<g id="Rectangle 93">
<path d="M71.7432 83.3884C70.6299 83.2373 69.9016 82.1428 70.192 81.0574C70.4631 80.0443 71.5618 79.5 72.5321 79.8982L85.632 85.2734L71.7432 83.3884Z" fill="#FCD043"/>
</g>
<g id="Rectangle 95">
<path d="M87.5037 71.3933C87.654 70.2757 88.7514 69.5449 89.8404 69.8371C90.8568 70.1098 91.4032 71.2133 91.0039 72.1869L85.6375 85.2701L87.5037 71.3933Z" fill="#FCD043"/>
</g>
<g id="Rectangle 97">
<path d="M77.1967 74.0965C76.5143 73.2007 76.772 71.9103 77.7454 71.3485C78.654 70.8241 79.8176 71.2181 80.2234 72.1875L85.6886 85.2432L77.1967 74.0965Z" fill="#FCD043"/>
</g>
<g id="Rectangle 99">
<path d="M96.8296 76.7456C97.7244 76.0636 99.0157 76.3241 99.5794 77.3001C100.106 78.2111 99.7135 79.376 98.7446 79.7808L85.6905 85.2343L96.8296 76.7456Z" fill="#FCD043"/>
</g>
<g id="Rectangle 94">
<path d="M99.5146 87.1541C100.628 87.3052 101.356 88.3997 101.066 89.4851C100.795 90.4982 99.696 91.0424 98.7257 90.6443L85.6257 85.2691L99.5146 87.1541Z" fill="#FCD043"/>
</g>
<g id="Rectangle 96">
<path d="M83.7629 99.1497C83.6126 100.267 82.5152 100.998 81.4262 100.706C80.4098 100.433 79.8634 99.3296 80.2627 98.3561L85.6291 85.2729L83.7629 99.1497Z" fill="#FCD043"/>
</g>
<g id="Rectangle 98">
<path d="M94.1783 96.3859C94.8607 97.2817 94.603 98.5721 93.6295 99.134C92.721 99.6583 91.5573 99.2643 91.1515 98.2949L85.6863 85.2392L94.1783 96.3859Z" fill="#FCD043"/>
</g>
<g id="Rectangle 100">
<path d="M74.5463 93.731C73.6515 94.4129 72.3603 94.1525 71.7966 93.1764C71.2705 92.2655 71.6625 91.1006 72.6314 90.6958L85.6854 85.2422L74.5463 93.731Z" fill="#FCD043"/>
</g>
</g>
</g>
</svg>
