<svg width="1920" height="226" viewBox="0 0 1920 226" fill="none" xmlns="http://www.w3.org/2000/svg">
<path d="M-146.159 39.12C-131.999 40.56 -116.759 46.8 -116.759 61.44C-116.759 78.36 -136.679 84 -152.279 84H-182.519V-5.72205e-06H-157.439C-141.959 -5.72205e-06 -122.039 3.12 -122.039 19.92C-122.039 32.88 -133.679 37.68 -146.159 39.12ZM-157.439 0.959996H-173.159V38.88H-157.439C-137.759 38.88 -131.399 30.6 -131.399 19.92C-131.399 9.36 -137.759 0.959996 -157.439 0.959996ZM-152.279 83.16C-132.479 83.16 -126.239 72.12 -126.239 61.44C-126.239 50.88 -132.479 39.84 -152.279 39.84H-173.159V83.16H-152.279ZM-80.9153 26.28C-70.9553 26.28 -59.0753 31.44 -59.0753 46.2V84H-60.3953L-68.5553 67.2C-70.7153 75.96 -77.1953 84.6 -89.3153 84.6C-100.715 84.6 -110.795 76.68 -110.795 66.12C-110.795 41.64 -75.9953 40.44 -68.5553 55.8V44.64C-68.5553 35.52 -73.4753 27.48 -81.9953 27.48C-89.7953 27.48 -95.4353 31.8 -97.3553 38.16L-98.1953 37.8C-96.2753 31.32 -90.5153 26.28 -80.9153 26.28ZM-86.6753 82.32C-75.5153 82.32 -69.0353 71.28 -68.5553 60.96V58.08C-73.2353 44.28 -102.155 41.52 -102.155 65.04C-102.155 75 -94.9553 82.32 -86.6753 82.32ZM3.32188 47.28C4.52188 59.04 6.44188 79.56 7.04188 84H-2.55812C-2.91812 80.04 -5.43812 51.72 -6.03812 45.6C-6.99812 36.6 -11.4381 26.4 -21.7581 28.44C-35.1981 30.96 -37.5981 56.16 -37.5981 66.24V84H-47.0781V27.12H-37.5981V56.04C-36.0381 42.48 -31.9581 26.28 -16.3581 26.28C-6.51812 26.28 1.76188 33 3.32188 47.28ZM41.8719 44.4L66.4719 84H56.7519L35.7519 49.68L26.0319 58.32V84H16.6719V-5.72205e-06H26.0319V57.24L59.9919 27.12H61.3119L41.8719 44.4ZM152.97 47.28C154.17 59.04 156.09 79.56 156.57 84H147.09C146.61 80.04 144.21 51.72 143.61 45.6C142.65 36.6 138.21 26.4 127.89 28.44C114.45 30.96 112.05 56.04 112.05 66.12V84H102.57V-5.72205e-06H112.05V56.04C113.61 42.48 117.69 26.28 133.29 26.28C143.13 26.28 151.41 33 152.97 47.28ZM194.283 26.28C209.403 26.28 225.963 37.2 225.963 55.44C225.963 73.68 209.403 84.6 194.283 84.6C179.163 84.6 162.603 73.68 162.603 55.44C162.603 37.2 179.163 26.28 194.283 26.28ZM194.283 83.64C206.163 83.64 216.123 71.28 216.123 55.44C216.123 39.6 206.163 27.24 194.283 27.24C182.403 27.24 172.443 39.6 172.443 55.44C172.443 71.28 182.403 83.64 194.283 83.64ZM269.114 62.76H269.954C269.954 74.16 266.594 84.6 253.874 84.6C243.314 84.6 236.714 77.64 236.714 63.6V27.12H229.634V26.28H236.714L244.874 9.84H246.194V26.28H260.234V27.12H246.194V65.28C246.194 75.72 248.114 82.92 257.594 82.44C265.634 82.08 269.114 72.72 269.114 62.76ZM334.003 67.32L334.843 67.68C331.003 74.52 323.923 83.88 309.643 84.6C294.043 85.32 276.523 76.44 276.043 56.76C275.443 35.88 294.403 26.88 307.603 26.28C317.683 25.68 331.723 30.72 333.403 45.24H286.243C284.803 51.6 285.043 58.68 287.083 64.44C291.523 77.04 301.603 83.76 313.843 82.44C325.603 81.24 332.083 70.8 334.003 67.32ZM302.083 27.6C293.923 29.16 288.763 36.12 286.483 44.28H324.763C323.203 33.84 313.843 25.44 302.083 27.6ZM343.273 -5.72205e-06H352.753V84H343.273V-5.72205e-06ZM1194.58 39.12C1208.74 40.56 1223.98 46.8 1223.98 61.44C1223.98 78.36 1204.06 84 1188.46 84H1158.22V-5.72205e-06H1183.3C1198.78 -5.72205e-06 1218.7 3.12 1218.7 19.92C1218.7 32.88 1207.06 37.68 1194.58 39.12ZM1183.3 0.959996H1167.58V38.88H1183.3C1202.98 38.88 1209.34 30.6 1209.34 19.92C1209.34 9.36 1202.98 0.959996 1183.3 0.959996ZM1188.46 83.16C1208.26 83.16 1214.5 72.12 1214.5 61.44C1214.5 50.88 1208.26 39.84 1188.46 39.84H1167.58V83.16H1188.46ZM1259.83 26.28C1269.79 26.28 1281.67 31.44 1281.67 46.2V84H1280.35L1272.19 67.2C1270.03 75.96 1263.55 84.6 1251.43 84.6C1240.03 84.6 1229.95 76.68 1229.95 66.12C1229.95 41.64 1264.75 40.44 1272.19 55.8V44.64C1272.19 35.52 1267.27 27.48 1258.75 27.48C1250.95 27.48 1245.31 31.8 1243.39 38.16L1242.55 37.8C1244.47 31.32 1250.23 26.28 1259.83 26.28ZM1254.07 82.32C1265.23 82.32 1271.71 71.28 1272.19 60.96V58.08C1267.51 44.28 1238.59 41.52 1238.59 65.04C1238.59 75 1245.79 82.32 1254.07 82.32ZM1344.06 47.28C1345.26 59.04 1347.18 79.56 1347.78 84H1338.18C1337.82 80.04 1335.3 51.72 1334.7 45.6C1333.74 36.6 1329.3 26.4 1318.98 28.44C1305.54 30.96 1303.14 56.16 1303.14 66.24V84H1293.66V27.12H1303.14V56.04C1304.7 42.48 1308.78 26.28 1324.38 26.28C1334.22 26.28 1342.5 33 1344.06 47.28ZM1382.61 44.4L1407.21 84H1397.49L1376.49 49.68L1366.77 58.32V84H1357.41V-5.72205e-06H1366.77V57.24L1400.73 27.12H1402.05L1382.61 44.4ZM1493.71 47.28C1494.91 59.04 1496.83 79.56 1497.31 84H1487.83C1487.35 80.04 1484.95 51.72 1484.35 45.6C1483.39 36.6 1478.95 26.4 1468.63 28.44C1455.19 30.96 1452.79 56.04 1452.79 66.12V84H1443.31V-5.72205e-06H1452.79V56.04C1454.35 42.48 1458.43 26.28 1474.03 26.28C1483.87 26.28 1492.15 33 1493.71 47.28ZM1535.03 26.28C1550.15 26.28 1566.71 37.2 1566.71 55.44C1566.71 73.68 1550.15 84.6 1535.03 84.6C1519.91 84.6 1503.35 73.68 1503.35 55.44C1503.35 37.2 1519.91 26.28 1535.03 26.28ZM1535.03 83.64C1546.91 83.64 1556.87 71.28 1556.87 55.44C1556.87 39.6 1546.91 27.24 1535.03 27.24C1523.15 27.24 1513.19 39.6 1513.19 55.44C1513.19 71.28 1523.15 83.64 1535.03 83.64ZM1609.86 62.76H1610.7C1610.7 74.16 1607.34 84.6 1594.62 84.6C1584.06 84.6 1577.46 77.64 1577.46 63.6V27.12H1570.38V26.28H1577.46L1585.62 9.84H1586.94V26.28L1600.98 26.28V27.12L1586.94 27.12V65.28C1586.94 75.72 1588.86 82.92 1598.34 82.44C1606.38 82.08 1609.86 72.72 1609.86 62.76ZM1674.75 67.32L1675.59 67.68C1671.75 74.52 1664.67 83.88 1650.39 84.6C1634.79 85.32 1617.27 76.44 1616.79 56.76C1616.19 35.88 1635.15 26.88 1648.35 26.28C1658.43 25.68 1672.47 30.72 1674.15 45.24H1626.99C1625.55 51.6 1625.79 58.68 1627.83 64.44C1632.27 77.04 1642.35 83.76 1654.59 82.44C1666.35 81.24 1672.83 70.8 1674.75 67.32ZM1642.83 27.6C1634.67 29.16 1629.51 36.12 1627.23 44.28H1665.51C1663.95 33.84 1654.59 25.44 1642.83 27.6ZM1684.02 -5.72205e-06H1693.5V84H1684.02V-5.72205e-06ZM1770.68 39.12C1784.84 40.56 1800.08 46.8 1800.08 61.44C1800.08 78.36 1780.16 84 1764.56 84H1734.32V-5.72205e-06H1759.4C1774.88 -5.72205e-06 1794.8 3.12 1794.8 19.92C1794.8 32.88 1783.16 37.68 1770.68 39.12ZM1759.4 0.959996H1743.68V38.88H1759.4C1779.08 38.88 1785.44 30.6 1785.44 19.92C1785.44 9.36 1779.08 0.959996 1759.4 0.959996ZM1764.56 83.16C1784.36 83.16 1790.6 72.12 1790.6 61.44C1790.6 50.88 1784.36 39.84 1764.56 39.84H1743.68V83.16H1764.56ZM1835.92 26.28C1845.88 26.28 1857.76 31.44 1857.76 46.2V84H1856.44L1848.28 67.2C1846.12 75.96 1839.64 84.6 1827.52 84.6C1816.12 84.6 1806.04 76.68 1806.04 66.12C1806.04 41.64 1840.84 40.44 1848.28 55.8V44.64C1848.28 35.52 1843.36 27.48 1834.84 27.48C1827.04 27.48 1821.4 31.8 1819.48 38.16L1818.64 37.8C1820.56 31.32 1826.32 26.28 1835.92 26.28ZM1830.16 82.32C1841.32 82.32 1847.8 71.28 1848.28 60.96V58.08C1843.6 44.28 1814.68 41.52 1814.68 65.04C1814.68 75 1821.88 82.32 1830.16 82.32ZM1920.16 47.28C1921.36 59.04 1923.28 79.56 1923.88 84H1914.28C1913.92 80.04 1911.4 51.72 1910.8 45.6C1909.84 36.6 1905.4 26.4 1895.08 28.44C1881.64 30.96 1879.24 56.16 1879.24 66.24V84H1869.76V27.12H1879.24V56.04C1880.8 42.48 1884.88 26.28 1900.48 26.28C1910.32 26.28 1918.6 33 1920.16 47.28ZM1958.71 44.4L1983.31 84L1973.59 84L1952.59 49.68L1942.87 58.32V84H1933.51V-5.72205e-06H1942.87V57.24L1976.83 27.12H1978.15L1958.71 44.4ZM2069.81 47.28C2071.01 59.04 2072.93 79.56 2073.41 84H2063.93C2063.45 80.04 2061.05 51.72 2060.45 45.6C2059.49 36.6 2055.05 26.4 2044.73 28.44C2031.29 30.96 2028.89 56.04 2028.89 66.12V84H2019.41V-5.72205e-06H2028.89V56.04C2030.45 42.48 2034.53 26.28 2050.13 26.28C2059.97 26.28 2068.25 33 2069.81 47.28ZM2111.12 26.28C2126.24 26.28 2142.8 37.2 2142.8 55.44C2142.8 73.68 2126.24 84.6 2111.12 84.6C2096 84.6 2079.44 73.68 2079.44 55.44C2079.44 37.2 2096 26.28 2111.12 26.28ZM2111.12 83.64C2123 83.64 2132.96 71.28 2132.96 55.44C2132.96 39.6 2123 27.24 2111.12 27.24C2099.24 27.24 2089.28 39.6 2089.28 55.44C2089.28 71.28 2099.24 83.64 2111.12 83.64ZM2185.95 62.76H2186.79C2186.79 74.16 2183.43 84.6 2170.71 84.6C2160.15 84.6 2153.55 77.64 2153.55 63.6V27.12H2146.47V26.28H2153.55L2161.71 9.84H2163.03V26.28H2177.07V27.12H2163.03V65.28C2163.03 75.72 2164.95 82.92 2174.43 82.44C2182.47 82.08 2185.95 72.72 2185.95 62.76ZM2250.84 67.32L2251.68 67.68C2247.84 74.52 2240.76 83.88 2226.48 84.6C2210.88 85.32 2193.36 76.44 2192.88 56.76C2192.28 35.88 2211.24 26.88 2224.44 26.28C2234.52 25.68 2248.56 30.72 2250.24 45.24H2203.08C2201.64 51.6 2201.88 58.68 2203.92 64.44C2208.36 77.04 2218.44 83.76 2230.68 82.44C2242.44 81.24 2248.92 70.8 2250.84 67.32ZM2218.92 27.6C2210.76 29.16 2205.6 36.12 2203.32 44.28H2241.6C2240.04 33.84 2230.68 25.44 2218.92 27.6ZM2260.11 -5.72205e-06H2269.59V84H2260.11V-5.72205e-06ZM-284.44 179.12C-270.28 180.56 -255.04 186.8 -255.04 201.44C-255.04 218.36 -274.96 224 -290.56 224H-320.8V140H-295.72C-280.24 140 -260.32 143.12 -260.32 159.92C-260.32 172.88 -271.96 177.68 -284.44 179.12ZM-295.72 140.96H-311.44V178.88H-295.72C-276.04 178.88 -269.68 170.6 -269.68 159.92C-269.68 149.36 -276.04 140.96 -295.72 140.96ZM-290.56 223.16C-270.76 223.16 -264.52 212.12 -264.52 201.44C-264.52 190.88 -270.76 179.84 -290.56 179.84H-311.44V223.16H-290.56ZM-219.197 166.28C-209.237 166.28 -197.357 171.44 -197.357 186.2V224H-198.677L-206.837 207.2C-208.997 215.96 -215.477 224.6 -227.597 224.6C-238.997 224.6 -249.077 216.68 -249.077 206.12C-249.077 181.64 -214.277 180.44 -206.837 195.8V184.64C-206.837 175.52 -211.757 167.48 -220.277 167.48C-228.077 167.48 -233.717 171.8 -235.637 178.16L-236.477 177.8C-234.557 171.32 -228.797 166.28 -219.197 166.28ZM-224.957 222.32C-213.797 222.32 -207.317 211.28 -206.837 200.96V198.08C-211.517 184.28 -240.437 181.52 -240.437 205.04C-240.437 215 -233.237 222.32 -224.957 222.32ZM-134.959 187.28C-133.759 199.04 -131.839 219.56 -131.239 224H-140.839C-141.199 220.04 -143.719 191.72 -144.319 185.6C-145.279 176.6 -149.719 166.4 -160.039 168.44C-173.479 170.96 -175.879 196.16 -175.879 206.24V224H-185.359V167.12H-175.879V196.04C-174.319 182.48 -170.239 166.28 -154.639 166.28C-144.799 166.28 -136.519 173 -134.959 187.28ZM-96.4094 184.4L-71.8094 224H-81.5294L-102.529 189.68L-112.249 198.32V224H-121.609V140H-112.249V197.24L-78.2894 167.12H-76.9694L-96.4094 184.4ZM14.6891 187.28C15.8891 199.04 17.8091 219.56 18.2891 224H8.80907C8.32907 220.04 5.92906 191.72 5.32906 185.6C4.36906 176.6 -0.0709372 166.4 -10.3909 168.44C-23.8309 170.96 -26.2309 196.04 -26.2309 206.12V224H-35.7109V140H-26.2309V196.04C-24.6709 182.48 -20.5909 166.28 -4.99093 166.28C4.84906 166.28 13.1291 173 14.6891 187.28ZM56.0019 166.28C71.1219 166.28 87.6819 177.2 87.6819 195.44C87.6819 213.68 71.1219 224.6 56.0019 224.6C40.8819 224.6 24.3219 213.68 24.3219 195.44C24.3219 177.2 40.8819 166.28 56.0019 166.28ZM56.0019 223.64C67.8819 223.64 77.8419 211.28 77.8419 195.44C77.8419 179.6 67.8819 167.24 56.0019 167.24C44.1219 167.24 34.1619 179.6 34.1619 195.44C34.1619 211.28 44.1219 223.64 56.0019 223.64ZM130.833 202.76H131.673C131.673 214.16 128.313 224.6 115.593 224.6C105.033 224.6 98.4331 217.64 98.4331 203.6V167.12H91.3531V166.28H98.4331L106.593 149.84H107.913V166.28H121.953V167.12H107.913V205.28C107.913 215.72 109.833 222.92 119.313 222.44C127.353 222.08 130.833 212.72 130.833 202.76ZM195.722 207.32L196.562 207.68C192.722 214.52 185.642 223.88 171.362 224.6C155.762 225.32 138.242 216.44 137.762 196.76C137.162 175.88 156.122 166.88 169.322 166.28C179.402 165.68 193.442 170.72 195.122 185.24L147.962 185.24C146.522 191.6 146.762 198.68 148.802 204.44C153.242 217.04 163.322 223.76 175.562 222.44C187.322 221.24 193.802 210.8 195.722 207.32ZM163.802 167.6C155.642 169.16 150.482 176.12 148.202 184.28L186.482 184.28C184.922 173.84 175.562 165.44 163.802 167.6ZM204.992 140H214.472V224H204.992V140ZM319.31 179.12C333.47 180.56 348.71 186.8 348.71 201.44C348.71 218.36 328.79 224 313.19 224H282.95V140H308.03C323.51 140 343.43 143.12 343.43 159.92C343.43 172.88 331.79 177.68 319.31 179.12ZM308.03 140.96H292.31V178.88H308.03C327.71 178.88 334.07 170.6 334.07 159.92C334.07 149.36 327.71 140.96 308.03 140.96ZM313.19 223.16C332.99 223.16 339.23 212.12 339.23 201.44C339.23 190.88 332.99 179.84 313.19 179.84H292.31V223.16H313.19ZM384.553 166.28C394.513 166.28 406.393 171.44 406.393 186.2V224H405.073L396.913 207.2C394.753 215.96 388.273 224.6 376.153 224.6C364.753 224.6 354.673 216.68 354.673 206.12C354.673 181.64 389.473 180.44 396.913 195.8V184.64C396.913 175.52 391.993 167.48 383.473 167.48C375.673 167.48 370.033 171.8 368.113 178.16L367.273 177.8C369.193 171.32 374.953 166.28 384.553 166.28ZM378.793 222.32C389.953 222.32 396.433 211.28 396.913 200.96V198.08C392.233 184.28 363.313 181.52 363.313 205.04C363.313 215 370.513 222.32 378.793 222.32ZM468.791 187.28C469.991 199.04 471.911 219.56 472.511 224H462.911C462.551 220.04 460.031 191.72 459.431 185.6C458.471 176.6 454.031 166.4 443.711 168.44C430.271 170.96 427.871 196.16 427.871 206.24V224H418.391V167.12H427.871V196.04C429.431 182.48 433.511 166.28 449.111 166.28C458.951 166.28 467.231 173 468.791 187.28ZM507.341 184.4L531.941 224H522.221L501.221 189.68L491.501 198.32V224H482.141V140H491.501V197.24L525.461 167.12H526.781L507.341 184.4ZM618.439 187.28C619.639 199.04 621.559 219.56 622.039 224H612.559C612.079 220.04 609.679 191.72 609.079 185.6C608.119 176.6 603.679 166.4 593.359 168.44C579.919 170.96 577.519 196.04 577.519 206.12V224H568.039V140H577.519V196.04C579.079 182.48 583.159 166.28 598.759 166.28C608.599 166.28 616.879 173 618.439 187.28ZM659.752 166.28C674.872 166.28 691.432 177.2 691.432 195.44C691.432 213.68 674.872 224.6 659.752 224.6C644.632 224.6 628.072 213.68 628.072 195.44C628.072 177.2 644.632 166.28 659.752 166.28ZM659.752 223.64C671.632 223.64 681.592 211.28 681.592 195.44C681.592 179.6 671.632 167.24 659.752 167.24C647.872 167.24 637.912 179.6 637.912 195.44C637.912 211.28 647.872 223.64 659.752 223.64ZM734.583 202.76H735.423C735.423 214.16 732.063 224.6 719.343 224.6C708.783 224.6 702.183 217.64 702.183 203.6V167.12H695.103V166.28H702.183L710.343 149.84H711.663V166.28H725.703V167.12H711.663V205.28C711.663 215.72 713.583 222.92 723.063 222.44C731.103 222.08 734.583 212.72 734.583 202.76ZM799.472 207.32L800.312 207.68C796.472 214.52 789.392 223.88 775.112 224.6C759.512 225.32 741.992 216.44 741.512 196.76C740.912 175.88 759.872 166.88 773.072 166.28C783.152 165.68 797.192 170.72 798.872 185.24H751.712C750.272 191.6 750.512 198.68 752.552 204.44C756.992 217.04 767.072 223.76 779.312 222.44C791.072 221.24 797.552 210.8 799.472 207.32ZM767.552 167.6C759.392 169.16 754.232 176.12 751.952 184.28H790.232C788.672 173.84 779.312 165.44 767.552 167.6ZM808.742 140H818.222V224H808.742V140ZM895.404 179.12C909.564 180.56 924.804 186.8 924.804 201.44C924.804 218.36 904.884 224 889.284 224H859.044V140H884.124C899.604 140 919.524 143.12 919.524 159.92C919.524 172.88 907.884 177.68 895.404 179.12ZM884.124 140.96H868.404V178.88H884.124C903.804 178.88 910.164 170.6 910.164 159.92C910.164 149.36 903.804 140.96 884.124 140.96ZM889.284 223.16C909.084 223.16 915.324 212.12 915.324 201.44C915.324 190.88 909.084 179.84 889.284 179.84H868.404V223.16H889.284ZM960.647 166.28C970.607 166.28 982.487 171.44 982.487 186.2V224H981.167L973.007 207.2C970.847 215.96 964.367 224.6 952.247 224.6C940.847 224.6 930.767 216.68 930.767 206.12C930.767 181.64 965.567 180.44 973.007 195.8V184.64C973.007 175.52 968.087 167.48 959.567 167.48C951.767 167.48 946.127 171.8 944.207 178.16L943.367 177.8C945.287 171.32 951.047 166.28 960.647 166.28ZM954.887 222.32C966.047 222.32 972.527 211.28 973.007 200.96V198.08C968.327 184.28 939.407 181.52 939.407 205.04C939.407 215 946.607 222.32 954.887 222.32ZM1044.88 187.28C1046.08 199.04 1048 219.56 1048.6 224H1039C1038.64 220.04 1036.12 191.72 1035.52 185.6C1034.56 176.6 1030.12 166.4 1019.8 168.44C1006.36 170.96 1003.96 196.16 1003.96 206.24V224H994.484V167.12H1003.96V196.04C1005.52 182.48 1009.6 166.28 1025.2 166.28C1035.04 166.28 1043.32 173 1044.88 187.28ZM1083.43 184.4L1108.03 224H1098.31L1077.31 189.68L1067.59 198.32V224H1058.23V140H1067.59V197.24L1101.55 167.12H1102.87L1083.43 184.4ZM1222.19 187.28C1223.39 199.04 1225.31 219.56 1225.79 224H1216.31C1215.83 220.04 1213.43 191.72 1212.83 185.6C1211.87 176.6 1207.43 166.4 1197.11 168.44C1183.67 170.96 1181.27 196.04 1181.27 206.12V224H1171.79V140H1181.27V196.04C1182.83 182.48 1186.91 166.28 1202.51 166.28C1212.35 166.28 1220.63 173 1222.19 187.28ZM1263.5 166.28C1278.62 166.28 1295.18 177.2 1295.18 195.44C1295.18 213.68 1278.62 224.6 1263.5 224.6C1248.38 224.6 1231.82 213.68 1231.82 195.44C1231.82 177.2 1248.38 166.28 1263.5 166.28ZM1263.5 223.64C1275.38 223.64 1285.34 211.28 1285.34 195.44C1285.34 179.6 1275.38 167.24 1263.5 167.24C1251.62 167.24 1241.66 179.6 1241.66 195.44C1241.66 211.28 1251.62 223.64 1263.5 223.64ZM1338.33 202.76H1339.17C1339.17 214.16 1335.81 224.6 1323.09 224.6C1312.53 224.6 1305.93 217.64 1305.93 203.6V167.12H1298.85V166.28H1305.93L1314.09 149.84H1315.41V166.28H1329.45V167.12H1315.41V205.28C1315.41 215.72 1317.33 222.92 1326.81 222.44C1334.85 222.08 1338.33 212.72 1338.33 202.76ZM1403.22 207.32L1404.06 207.68C1400.22 214.52 1393.14 223.88 1378.86 224.6C1363.26 225.32 1345.74 216.44 1345.26 196.76C1344.66 175.88 1363.62 166.88 1376.82 166.28C1386.9 165.68 1400.94 170.72 1402.62 185.24H1355.46C1354.02 191.6 1354.26 198.68 1356.3 204.44C1360.74 217.04 1370.82 223.76 1383.06 222.44C1394.82 221.24 1401.3 210.8 1403.22 207.32ZM1371.3 167.6C1363.14 169.16 1357.98 176.12 1355.7 184.28H1393.98C1392.42 173.84 1383.06 165.44 1371.3 167.6ZM1412.49 140H1421.97V224H1412.49V140ZM1499.15 179.12C1513.31 180.56 1528.55 186.8 1528.55 201.44C1528.55 218.36 1508.63 224 1493.03 224H1462.79V140H1487.87C1503.35 140 1523.27 143.12 1523.27 159.92C1523.27 172.88 1511.63 177.68 1499.15 179.12ZM1487.87 140.96H1472.15V178.88H1487.87C1507.55 178.88 1513.91 170.6 1513.91 159.92C1513.91 149.36 1507.55 140.96 1487.87 140.96ZM1493.03 223.16C1512.83 223.16 1519.07 212.12 1519.07 201.44C1519.07 190.88 1512.83 179.84 1493.03 179.84H1472.15V223.16H1493.03ZM1564.4 166.28C1574.36 166.28 1586.24 171.44 1586.24 186.2V224H1584.92L1576.76 207.2C1574.6 215.96 1568.12 224.6 1556 224.6C1544.6 224.6 1534.52 216.68 1534.52 206.12C1534.52 181.64 1569.32 180.44 1576.76 195.8V184.64C1576.76 175.52 1571.84 167.48 1563.32 167.48C1555.52 167.48 1549.88 171.8 1547.96 178.16L1547.12 177.8C1549.04 171.32 1554.8 166.28 1564.4 166.28ZM1558.64 222.32C1569.8 222.32 1576.28 211.28 1576.76 200.96V198.08C1572.08 184.28 1543.16 181.52 1543.16 205.04C1543.16 215 1550.36 222.32 1558.64 222.32ZM1648.63 187.28C1649.83 199.04 1651.75 219.56 1652.35 224H1642.75C1642.39 220.04 1639.87 191.72 1639.27 185.6C1638.31 176.6 1633.87 166.4 1623.55 168.44C1610.11 170.96 1607.71 196.16 1607.71 206.24V224H1598.23V167.12H1607.71V196.04C1609.27 182.48 1613.35 166.28 1628.95 166.28C1638.79 166.28 1647.07 173 1648.63 187.28ZM1687.18 184.4L1711.78 224H1702.06L1681.06 189.68L1671.34 198.32V224H1661.98V140H1671.34V197.24L1705.3 167.12H1706.62L1687.18 184.4ZM1798.28 187.28C1799.48 199.04 1801.4 219.56 1801.88 224H1792.4C1791.92 220.04 1789.52 191.72 1788.92 185.6C1787.96 176.6 1783.52 166.4 1773.2 168.44C1759.76 170.96 1757.36 196.04 1757.36 206.12V224H1747.88V140H1757.36V196.04C1758.92 182.48 1763 166.28 1778.6 166.28C1788.44 166.28 1796.72 173 1798.28 187.28ZM1839.6 166.28C1854.72 166.28 1871.28 177.2 1871.28 195.44C1871.28 213.68 1854.72 224.6 1839.6 224.6C1824.48 224.6 1807.92 213.68 1807.92 195.44C1807.92 177.2 1824.48 166.28 1839.6 166.28ZM1839.6 223.64C1851.48 223.64 1861.44 211.28 1861.44 195.44C1861.44 179.6 1851.48 167.24 1839.6 167.24C1827.72 167.24 1817.76 179.6 1817.76 195.44C1817.76 211.28 1827.72 223.64 1839.6 223.64ZM1914.43 202.76H1915.27C1915.27 214.16 1911.91 224.6 1899.19 224.6C1888.63 224.6 1882.03 217.64 1882.03 203.6V167.12H1874.95V166.28H1882.03L1890.19 149.84H1891.51V166.28H1905.55V167.12H1891.51V205.28C1891.51 215.72 1893.43 222.92 1902.91 222.44C1910.95 222.08 1914.43 212.72 1914.43 202.76ZM1979.32 207.32L1980.16 207.68C1976.32 214.52 1969.24 223.88 1954.96 224.6C1939.36 225.32 1921.84 216.44 1921.36 196.76C1920.76 175.88 1939.72 166.88 1952.92 166.28C1963 165.68 1977.04 170.72 1978.72 185.24H1931.56C1930.12 191.6 1930.36 198.68 1932.4 204.44C1936.84 217.04 1946.92 223.76 1959.16 222.44C1970.92 221.24 1977.4 210.8 1979.32 207.32ZM1947.4 167.6C1939.24 169.16 1934.08 176.12 1931.8 184.28H1970.08C1968.52 173.84 1959.16 165.44 1947.4 167.6ZM1988.59 140H1998.07V224H1988.59V140Z" fill="#FFFCF6" fill-opacity="0.12"/>
<path d="M429.935 39.12C444.095 40.56 459.335 46.8 459.335 61.44C459.335 78.36 439.415 84 423.815 84H393.575V-5.72205e-06H418.655C434.135 -5.72205e-06 454.055 3.12 454.055 19.92C454.055 32.88 442.415 37.68 429.935 39.12ZM418.655 0.959996H402.935V38.88H418.655C438.335 38.88 444.695 30.6 444.695 19.92C444.695 9.36 438.335 0.959996 418.655 0.959996ZM423.815 83.16C443.615 83.16 449.855 72.12 449.855 61.44C449.855 50.88 443.615 39.84 423.815 39.84H402.935V83.16H423.815ZM495.178 26.28C505.138 26.28 517.018 31.44 517.018 46.2V84H515.698L507.538 67.2C505.378 75.96 498.898 84.6 486.778 84.6C475.378 84.6 465.298 76.68 465.298 66.12C465.298 41.64 500.098 40.44 507.538 55.8V44.64C507.538 35.52 502.618 27.48 494.098 27.48C486.298 27.48 480.658 31.8 478.738 38.16L477.898 37.8C479.818 31.32 485.578 26.28 495.178 26.28ZM489.418 82.32C500.578 82.32 507.058 71.28 507.538 60.96V58.08C502.858 44.28 473.938 41.52 473.938 65.04C473.938 75 481.138 82.32 489.418 82.32ZM579.416 47.28C580.616 59.04 582.536 79.56 583.136 84H573.536C573.176 80.04 570.656 51.72 570.056 45.6C569.096 36.6 564.656 26.4 554.336 28.44C540.896 30.96 538.496 56.16 538.496 66.24V84H529.016V27.12H538.496V56.04C540.056 42.48 544.136 26.28 559.736 26.28C569.576 26.28 577.856 33 579.416 47.28ZM617.966 44.4L642.566 84H632.846L611.846 49.68L602.126 58.32V84H592.766V-5.72205e-06H602.126V57.24L636.086 27.12H637.406L617.966 44.4ZM652.208 86.28H698.408V87.24H652.208V86.28ZM712.794 86.28H758.994V87.24H712.794V86.28ZM822.58 47.28C823.78 59.04 825.7 79.56 826.18 84H816.7C816.22 80.04 813.82 51.72 813.22 45.6C812.26 36.6 807.82 26.4 797.5 28.44C784.06 30.96 781.66 56.04 781.66 66.12V84H772.18V-5.72205e-06H781.66V56.04C783.22 42.48 787.3 26.28 802.9 26.28C812.74 26.28 821.02 33 822.58 47.28ZM863.893 26.28C879.013 26.28 895.573 37.2 895.573 55.44C895.573 73.68 879.013 84.6 863.893 84.6C848.773 84.6 832.213 73.68 832.213 55.44C832.213 37.2 848.773 26.28 863.893 26.28ZM863.893 83.64C875.773 83.64 885.733 71.28 885.733 55.44C885.733 39.6 875.773 27.24 863.893 27.24C852.013 27.24 842.053 39.6 842.053 55.44C842.053 71.28 852.013 83.64 863.893 83.64ZM938.724 62.76H939.564C939.564 74.16 936.204 84.6 923.484 84.6C912.924 84.6 906.324 77.64 906.324 63.6V27.12H899.244V26.28H906.324L914.484 9.84H915.804V26.28H929.844V27.12H915.804V65.28C915.804 75.72 917.724 82.92 927.204 82.44C935.244 82.08 938.724 72.72 938.724 62.76ZM1003.61 67.32L1004.45 67.68C1000.61 74.52 993.533 83.88 979.253 84.6C963.653 85.32 946.133 76.44 945.653 56.76C945.053 35.88 964.013 26.88 977.213 26.28C987.293 25.68 1001.33 30.72 1003.01 45.24H955.853C954.413 51.6 954.653 58.68 956.693 64.44C961.133 77.04 971.213 83.76 983.453 82.44C995.213 81.24 1001.69 70.8 1003.61 67.32ZM971.693 27.6C963.533 29.16 958.373 36.12 956.093 44.28H994.373C992.813 33.84 983.453 25.44 971.693 27.6ZM1012.88 -5.72205e-06L1022.36 -5.72205e-06V84H1012.88V-5.72205e-06ZM1083.77 69.12C1089.17 68.4 1093.97 64.8 1097.09 58.56L1097.57 58.8C1094.21 65.64 1088.33 71.28 1077.53 71.28C1065.41 71.28 1054.97 61.44 1054.97 49.44C1054.97 37.32 1065.89 27.48 1078.01 27.48C1084.73 27.48 1091.81 30.84 1093.49 32.28V39.6C1088.93 31.68 1079.81 27.24 1071.77 28.92C1061.33 31.2 1057.49 43.56 1060.85 54.36C1064.09 65.16 1072.97 70.8 1083.77 69.12ZM1075.85 9.72C1098.05 9.72 1116.17 27.72 1116.17 50.04C1116.17 72.24 1098.05 90.36 1075.85 90.36C1053.53 90.36 1035.53 72.24 1035.53 50.04C1035.53 27.72 1053.53 9.72 1075.85 9.72ZM1075.85 89.28C1097.57 89.28 1115.21 71.64 1115.21 50.04C1115.21 28.32 1097.57 10.68 1075.85 10.68C1054.13 10.68 1036.49 28.32 1036.49 50.04C1036.49 71.64 1054.13 89.28 1075.85 89.28Z" fill="#FFFCF6"/>
</svg>
