<svg width="191" height="190" viewBox="0 0 191 190" fill="none" xmlns="http://www.w3.org/2000/svg">
<path d="M53.3701 9.4325L58.3493 7.29232C60.6413 6.34113 62.3801 7.05452 63.3285 9.11543C64.2769 11.2556 63.5656 13.0787 61.2736 14.0299L57.7961 15.536L59.851 20.2126L58.3493 20.8468L53.3701 9.4325ZM57.2428 14.1884L60.2462 12.9202C61.9849 12.2068 62.3801 11.0971 61.8269 9.74956C61.2736 8.40204 60.1671 8.00571 58.4284 8.7191L55.425 9.98736L57.2428 14.1884Z" fill="#1B3B36"/>
<path d="M53.3701 9.4325L58.3493 7.29232C60.6413 6.34113 62.3801 7.05452 63.3285 9.11543C64.2769 11.2556 63.5656 13.0787 61.2736 14.0299L57.7961 15.536L59.851 20.2126L58.3493 20.8468L53.3701 9.4325ZM57.2428 14.1884L60.2462 12.9202C61.9849 12.2068 62.3801 11.0971 61.8269 9.74956C61.2736 8.40204 60.1671 8.00571 58.4284 8.7191L55.425 9.98736L57.2428 14.1884Z" fill="black" fill-opacity="0.2"/>
<path d="M76.2148 1.66438L81.9844 0.792455C84.2764 0.475392 85.9361 1.50585 86.1732 3.48749C86.4103 4.99354 85.9361 6.26179 84.5135 6.89592C86.0152 6.97518 86.4103 7.92637 86.7265 9.11536C87.0426 10.3043 87.1217 11.6519 87.9911 12.3653L86.1732 12.6031C85.62 12.2067 85.699 10.7799 85.3039 9.67022C84.9877 8.48123 84.5135 7.53004 82.9328 7.76784L78.9811 8.40197L79.7714 13.6335L78.1117 13.8713L76.2148 1.66438ZM82.0634 6.57886C83.5651 6.34106 84.8297 5.7862 84.5925 3.96309C84.4345 2.7741 83.6441 1.98144 82.0634 2.21924L78.0326 2.85336L78.6649 7.13372L82.0634 6.57886Z" fill="#1B3B36"/>
<path d="M76.2148 1.66438L81.9844 0.792455C84.2764 0.475392 85.9361 1.50585 86.1732 3.48749C86.4103 4.99354 85.9361 6.26179 84.5135 6.89592C86.0152 6.97518 86.4103 7.92637 86.7265 9.11536C87.0426 10.3043 87.1217 11.6519 87.9911 12.3653L86.1732 12.6031C85.62 12.2067 85.699 10.7799 85.3039 9.67022C84.9877 8.48123 84.5135 7.53004 82.9328 7.76784L78.9811 8.40197L79.7714 13.6335L78.1117 13.8713L76.2148 1.66438ZM82.0634 6.57886C83.5651 6.34106 84.8297 5.7862 84.5925 3.96309C84.4345 2.7741 83.6441 1.98144 82.0634 2.21924L78.0326 2.85336L78.6649 7.13372L82.0634 6.57886Z" fill="black" fill-opacity="0.2"/>
<path d="M100.871 0L109.407 0.871923L109.249 2.29871L102.373 1.58531L101.977 5.5486L108.379 6.18273L108.221 7.60951L101.819 6.97539L101.345 11.2557L108.3 11.8899L108.142 13.3166L99.6064 12.3655L100.871 0Z" fill="#1B3B36"/>
<path d="M100.871 0L109.407 0.871923L109.249 2.29871L102.373 1.58531L101.977 5.5486L108.379 6.18273L108.221 7.60951L101.819 6.97539L101.345 11.2557L108.3 11.8899L108.142 13.3166L99.6064 12.3655L100.871 0Z" fill="black" fill-opacity="0.2"/>
<path d="M124.188 4.27979L126.321 5.15171L126.163 16.3282L133.672 8.08454L135.806 8.95647L131.222 20.5293L129.641 19.8159L133.435 10.1455L126.005 18.3891L124.662 17.8342L124.82 6.73702L121.026 16.4074L119.604 15.8526L124.188 4.27979Z" fill="#1B3B36"/>
<path d="M124.188 4.27979L126.321 5.15171L126.163 16.3282L133.672 8.08454L135.806 8.95647L131.222 20.5293L129.641 19.8159L133.435 10.1455L126.005 18.3891L124.662 17.8342L124.82 6.73702L121.026 16.4074L119.604 15.8526L124.188 4.27979Z" fill="black" fill-opacity="0.2"/>
<path d="M149.004 16.8042L150.347 17.7554L143.155 27.9014L141.812 26.9502L149.004 16.8042Z" fill="#1B3B36"/>
<path d="M149.004 16.8042L150.347 17.7554L143.155 27.9014L141.812 26.9502L149.004 16.8042Z" fill="black" fill-opacity="0.2"/>
<path d="M162.915 40.265C160.623 42.4052 158.173 42.1674 156.118 39.8687C153.985 37.4907 153.826 35.1128 156.277 32.8933L162.125 27.5825L163.232 28.7715L157.304 34.0823C155.644 35.5884 155.644 37.3322 157.067 38.9175C158.49 40.5028 160.149 40.5028 161.73 39.076L167.579 33.7652L168.685 34.9542L162.915 40.265Z" fill="#1B3B36"/>
<path d="M162.915 40.265C160.623 42.4052 158.173 42.1674 156.118 39.8687C153.985 37.4907 153.826 35.1128 156.277 32.8933L162.125 27.5825L163.232 28.7715L157.304 34.0823C155.644 35.5884 155.644 37.3322 157.067 38.9175C158.49 40.5028 160.149 40.5028 161.73 39.076L167.579 33.7652L168.685 34.9542L162.915 40.265Z" fill="black" fill-opacity="0.2"/>
<path d="M177.773 48.0371L178.8 50.098L171.134 58.1831L182.199 57.1527L183.226 59.2136L172.082 64.6829L171.371 63.2561L180.697 58.738L169.711 59.7684L169.079 58.5002L176.666 50.4943L167.34 55.0125L166.629 53.5857L177.773 48.0371Z" fill="#1B3B36"/>
<path d="M177.773 48.0371L178.8 50.098L171.134 58.1831L182.199 57.1527L183.226 59.2136L172.082 64.6829L171.371 63.2561L180.697 58.738L169.711 59.7684L169.079 58.5002L176.666 50.4943L167.34 55.0125L166.629 53.5857L177.773 48.0371Z" fill="black" fill-opacity="0.2"/>
<path d="M190.026 91.3929L189.947 97.2586C189.947 99.5573 188.603 100.984 186.627 100.984C185.125 100.984 183.94 100.271 183.545 98.7646C183.229 100.191 182.201 100.508 180.937 100.588C179.751 100.667 178.328 100.588 177.538 101.301V99.478C178.012 99.0024 179.356 99.3195 180.62 99.0817C181.806 98.9232 182.833 98.6854 182.912 97.0208L182.991 92.9782L177.696 92.899V91.2344L190.026 91.3929ZM184.256 96.3867C184.256 97.972 184.572 99.2402 186.39 99.3195C187.576 99.3195 188.524 98.6854 188.524 97.1L188.603 92.9782L184.256 92.899V96.3867Z" fill="#1B3B36"/>
<path d="M190.026 91.3929L189.947 97.2586C189.947 99.5573 188.603 100.984 186.627 100.984C185.125 100.984 183.94 100.271 183.545 98.7646C183.229 100.191 182.201 100.508 180.937 100.588C179.751 100.667 178.328 100.588 177.538 101.301V99.478C178.012 99.0024 179.356 99.3195 180.62 99.0817C181.806 98.9232 182.833 98.6854 182.912 97.0208L182.991 92.9782L177.696 92.899V91.2344L190.026 91.3929ZM184.256 96.3867C184.256 97.972 184.572 99.2402 186.39 99.3195C187.576 99.3195 188.524 98.6854 188.524 97.1L188.603 92.9782L184.256 92.899V96.3867Z" fill="black" fill-opacity="0.2"/>
<path d="M186.703 121.277C185.597 125.082 182.04 126.192 178.8 125.241C175.559 124.29 173.109 121.515 174.137 117.71C175.243 113.906 178.8 112.796 182.04 113.747C185.281 114.698 187.731 117.473 186.703 121.277ZM175.48 118.107C174.69 121.04 176.824 122.942 179.195 123.655C181.566 124.369 184.49 123.814 185.281 120.881C186.071 117.948 183.937 116.046 181.566 115.332C179.195 114.698 176.35 115.174 175.48 118.107Z" fill="#1B3B36"/>
<path d="M186.703 121.277C185.597 125.082 182.04 126.192 178.8 125.241C175.559 124.29 173.109 121.515 174.137 117.71C175.243 113.906 178.8 112.796 182.04 113.747C185.281 114.698 187.731 117.473 186.703 121.277ZM175.48 118.107C174.69 121.04 176.824 122.942 179.195 123.655C181.566 124.369 184.49 123.814 185.281 120.881C186.071 117.948 183.937 116.046 181.566 115.332C179.195 114.698 176.35 115.174 175.48 118.107Z" fill="black" fill-opacity="0.2"/>
<path d="M176.034 145.453C173.979 148.782 170.264 148.861 167.34 147.117C164.495 145.374 162.835 141.965 164.969 138.636C167.024 135.307 170.738 135.228 173.663 136.971C176.508 138.715 178.168 142.044 176.034 145.453ZM166.154 139.349C164.574 141.965 166.075 144.422 168.209 145.691C170.343 147.038 173.188 147.276 174.848 144.74C176.429 142.124 174.927 139.667 172.793 138.398C170.659 137.051 167.735 136.734 166.154 139.349Z" fill="#1B3B36"/>
<path d="M176.034 145.453C173.979 148.782 170.264 148.861 167.34 147.117C164.495 145.374 162.835 141.965 164.969 138.636C167.024 135.307 170.738 135.228 173.663 136.971C176.508 138.715 178.168 142.044 176.034 145.453ZM166.154 139.349C164.574 141.965 166.075 144.422 168.209 145.691C170.343 147.038 173.188 147.276 174.848 144.74C176.429 142.124 174.927 139.667 172.793 138.398C170.659 137.051 167.735 136.734 166.154 139.349Z" fill="black" fill-opacity="0.2"/>
<path d="M162.911 162.099L161.251 163.605L151.372 158.453L155.403 168.916L153.743 170.422L145.444 161.148L146.63 160.117L153.506 167.806L149.475 157.502L150.503 156.55L160.303 161.703L153.427 154.014L154.612 152.983L162.911 162.099Z" fill="#1B3B36"/>
<path d="M162.911 162.099L161.251 163.605L151.372 158.453L155.403 168.916L153.743 170.422L145.444 161.148L146.63 160.117L153.506 167.806L149.475 157.502L150.503 156.55L160.303 161.703L153.427 154.014L154.612 152.983L162.911 162.099Z" fill="black" fill-opacity="0.2"/>
<path d="M132.329 178.904C133.277 180.41 134.7 180.568 136.201 179.855C137.466 179.221 138.493 178.19 137.782 176.684C137.15 175.337 135.253 175.971 133.198 176.447C131.222 176.922 129.167 177.16 128.061 174.94C126.875 172.562 128.772 170.502 130.827 169.471C133.356 168.282 136.043 168.441 137.387 171.136L135.964 171.849C135.016 169.947 133.119 169.947 131.38 170.739C130.036 171.373 128.772 172.562 129.562 174.148C130.274 175.654 132.249 175.099 134.225 174.623C136.201 174.148 138.256 173.751 139.205 175.812C140.311 178.111 138.809 180.093 136.754 181.044C134.462 182.154 132.249 181.916 130.906 179.538L132.329 178.904Z" fill="#1B3B36"/>
<path d="M132.329 178.904C133.277 180.41 134.7 180.568 136.201 179.855C137.466 179.221 138.493 178.19 137.782 176.684C137.15 175.337 135.253 175.971 133.198 176.447C131.222 176.922 129.167 177.16 128.061 174.94C126.875 172.562 128.772 170.502 130.827 169.471C133.356 168.282 136.043 168.441 137.387 171.136L135.964 171.849C135.016 169.947 133.119 169.947 131.38 170.739C130.036 171.373 128.772 172.562 129.562 174.148C130.274 175.654 132.249 175.099 134.225 174.623C136.201 174.148 138.256 173.751 139.205 175.812C140.311 178.111 138.809 180.093 136.754 181.044C134.462 182.154 132.249 181.916 130.906 179.538L132.329 178.904Z" fill="black" fill-opacity="0.2"/>
<path d="M115.728 177.396L113.831 177.872L113.356 175.969L115.253 175.494L115.728 177.396Z" fill="#1B3B36"/>
<path d="M115.728 177.396L113.831 177.872L113.356 175.969L115.253 175.494L115.728 177.396Z" fill="black" fill-opacity="0.2"/>
<path d="M84.115 190.001L79.689 189.287C78.5826 189.129 77.1599 188.891 76.5276 188.336C75.8163 187.702 75.3421 186.751 75.5002 185.562C75.7373 184.214 76.5276 183.422 77.7922 183.105C76.3696 182.55 75.6583 181.282 75.9744 179.775C76.2905 177.952 77.8712 176.446 80.2423 176.843L86.1699 177.794L84.115 190.001ZM83.4037 184.452L80.1632 183.897C78.3454 183.58 77.4761 184.135 77.239 185.403C76.9228 187.068 78.1083 187.544 79.531 187.781L82.7714 188.336L83.4037 184.452ZM84.2731 178.824L80.1632 178.19C78.7406 177.952 77.7132 178.666 77.4761 180.013C77.239 181.599 78.4245 182.233 79.7681 182.471L83.4827 183.105L84.2731 178.824Z" fill="#1B3B36"/>
<path d="M84.115 190.001L79.689 189.287C78.5826 189.129 77.1599 188.891 76.5276 188.336C75.8163 187.702 75.3421 186.751 75.5002 185.562C75.7373 184.214 76.5276 183.422 77.7922 183.105C76.3696 182.55 75.6583 181.282 75.9744 179.775C76.2905 177.952 77.8712 176.446 80.2423 176.843L86.1699 177.794L84.115 190.001ZM83.4037 184.452L80.1632 183.897C78.3454 183.58 77.4761 184.135 77.239 185.403C76.9228 187.068 78.1083 187.544 79.531 187.781L82.7714 188.336L83.4037 184.452ZM84.2731 178.824L80.1632 178.19C78.7406 177.952 77.7132 178.666 77.4761 180.013C77.239 181.599 78.4245 182.233 79.7681 182.471L83.4827 183.105L84.2731 178.824Z" fill="black" fill-opacity="0.2"/>
<path d="M57.0064 182.55L55.3467 181.837L55.979 168.52L57.6387 169.233L57.3226 173.197L62.1437 175.337L64.9099 172.483L66.4906 173.197L57.0064 182.55ZM61.1162 176.367L57.2435 174.623L56.7693 180.806L61.1162 176.367Z" fill="#1B3B36"/>
<path d="M57.0064 182.55L55.3467 181.837L55.979 168.52L57.6387 169.233L57.3226 173.197L62.1437 175.337L64.9099 172.483L66.4906 173.197L57.0064 182.55ZM61.1162 176.367L57.2435 174.623L56.7693 180.806L61.1162 176.367Z" fill="black" fill-opacity="0.2"/>
<path d="M38.9096 172.324L37.566 171.215L38.8306 159.245L32.5078 167.093L31.3223 166.142L39.1467 156.471L40.5694 157.581L39.3048 169.471L45.5486 161.703L46.7341 162.654L38.9096 172.324Z" fill="#1B3B36"/>
<path d="M38.9096 172.324L37.566 171.215L38.8306 159.245L32.5078 167.093L31.3223 166.142L39.1467 156.471L40.5694 157.581L39.3048 169.471L45.5486 161.703L46.7341 162.654L38.9096 172.324Z" fill="black" fill-opacity="0.2"/>
<path d="M20.5722 154.57L19.6237 153.222L24.6029 149.576L15.9091 148.07L14.6445 146.326L21.7577 147.673L24.6029 138.875L25.7885 140.54L23.3384 147.911L26.1046 148.466L29.6612 145.93L30.6096 147.277L20.5722 154.57Z" fill="#1B3B36"/>
<path d="M20.5722 154.57L19.6237 153.222L24.6029 149.576L15.9091 148.07L14.6445 146.326L21.7577 147.673L24.6029 138.875L25.7885 140.54L23.3384 147.911L26.1046 148.466L29.6612 145.93L30.6096 147.277L20.5722 154.57Z" fill="black" fill-opacity="0.2"/>
<path d="M2.47308 117.473L2.15694 115.808L7.37324 114.857L6.18772 108.436L0.971413 109.388L0.655273 107.723L12.8267 105.424L13.1428 107.089L7.53131 108.119L8.71684 114.54L14.3283 113.509L14.6445 115.174L2.47308 117.473Z" fill="#1B3B36"/>
<path d="M2.47308 117.473L2.15694 115.808L7.37324 114.857L6.18772 108.436L0.971413 109.388L0.655273 107.723L12.8267 105.424L13.1428 107.089L7.53131 108.119L8.71684 114.54L14.3283 113.509L14.6445 115.174L2.47308 117.473Z" fill="black" fill-opacity="0.2"/>
<path d="M0.0234735 86.6374C0.339613 82.6741 3.65908 81.0095 7.05758 81.2473C10.4561 81.4851 13.3804 83.7838 12.9852 87.7471C12.6691 91.7104 9.3496 93.3749 5.95109 93.1371C2.63163 92.8994 -0.292666 90.6006 0.0234735 86.6374ZM11.6416 87.6678C11.8787 84.6557 9.42863 83.1497 6.89951 82.9119C4.3704 82.6741 1.68321 83.7045 1.4461 86.7166C1.209 89.7287 3.65908 91.2348 6.1882 91.4726C8.63828 91.7896 11.3255 90.7592 11.6416 87.6678Z" fill="#1B3B36"/>
<path d="M0.0234735 86.6374C0.339613 82.6741 3.65908 81.0095 7.05758 81.2473C10.4561 81.4851 13.3804 83.7838 12.9852 87.7471C12.6691 91.7104 9.3496 93.3749 5.95109 93.1371C2.63163 92.8994 -0.292666 90.6006 0.0234735 86.6374ZM11.6416 87.6678C11.8787 84.6557 9.42863 83.1497 6.89951 82.9119C4.3704 82.6741 1.68321 83.7045 1.4461 86.7166C1.209 89.7287 3.65908 91.2348 6.1882 91.4726C8.63828 91.7896 11.3255 90.7592 11.6416 87.6678Z" fill="black" fill-opacity="0.2"/>
<path d="M6.66271 63.9679L5.24008 67.8519L3.89648 67.3763L7.29499 58.0229L8.63858 58.4985L7.21595 62.3826L17.5695 66.1873L17.0163 67.7726L6.66271 63.9679Z" fill="#1B3B36"/>
<path d="M6.66271 63.9679L5.24008 67.8519L3.89648 67.3763L7.29499 58.0229L8.63858 58.4985L7.21595 62.3826L17.5695 66.1873L17.0163 67.7726L6.66271 63.9679Z" fill="black" fill-opacity="0.2"/>
<path d="M13.8525 45.4987L18.5946 38.3647L19.7802 39.1574L15.9074 44.9438L19.1479 47.1633L22.7045 41.7732L23.89 42.5658L20.3334 47.9559L23.89 50.3339L27.7627 44.5475L28.9482 45.3401L24.1271 52.5533L13.8525 45.4987Z" fill="#1B3B36"/>
<path d="M13.8525 45.4987L18.5946 38.3647L19.7802 39.1574L15.9074 44.9438L19.1479 47.1633L22.7045 41.7732L23.89 42.5658L20.3334 47.9559L23.89 50.3339L27.7627 44.5475L28.9482 45.3401L24.1271 52.5533L13.8525 45.4987Z" fill="black" fill-opacity="0.2"/>
<path d="M28.3203 27.1878L29.5058 26.0781L36.9351 34.2425L41.7563 29.8036L42.7047 30.8341L36.619 36.3827L28.3203 27.1878Z" fill="#1B3B36"/>
<path d="M28.3203 27.1878L29.5058 26.0781L36.9351 34.2425L41.7563 29.8036L42.7047 30.8341L36.619 36.3827L28.3203 27.1878Z" fill="black" fill-opacity="0.2"/>
</svg>
